<?xml version="1.0" encoding="UTF-8"?>
<svg id="Layer_1" xmlns="http://www.w3.org/2000/svg" version="1.1" viewBox="0 0 55 44">
  <!-- Generator: Adobe Illustrator 29.5.1, SVG Export Plug-In . SVG Version: 2.1.0 Build 141)  -->
  <path d="M33.27,13.02v8.34c.1.02.11-.04.17-.08.78-.6,1.8-1.55,2.52-2.24.15-.14.57-.52.6-.68.11-.47-.25-.34-.32-.41-.03-.03-.03-.48.05-.53l2.55-.02.13.09.04.36c.98-.17,1.94-.56,2.94-.56v5.85c0,.48.47,1.19.92,1.37.9.37,1.77-.13,2.07-1.01.23-.7.21-3.35.14-4.17-.04-.49-.23-.9-.79-.87v-.55c1.04-.21,2.08-.6,3.14-.62v6.75c0,.13.16.46.28.56.49.41,1.2.09,1.23-.56v-9.13c-.05-.44-.34-.72-.78-.7v-.55c1.06-.19,2.11-.63,3.19-.62v11.17c0,.08.17.36.25.42.3.24.65,0,.53.67h-7.05v-.84c-1.27,1.47-4.23,1.41-5.14-.43-.63-1.27-.23-3.23-.34-4.64-.05-.59-.2-.88-.82-.97l-.02-.4c-.06,0-.13,0-.19,0-.82.11-2,1.24-2.61,1.81-.06.06-.28.25-.27.33l2.85,3.93c.15.17.35.35.54.47.39.25.62.09.52.74h-3.81v-.47c.07-.17.5-.02.23-.63l-1.89-2.7-.82.69c-.08.11-.07,1.34-.05,1.57.04.56.16.96.78,1.04v.5s-3.91,0-3.91,0v-.5c.5-.06.73-.33.78-.82-.16-2.9.22-6.03,0-8.9-.04-.53-.2-.87-.79-.87v-.53c1.02-.25,2.08-.63,3.14-.65Z"/>
  <path d="M14.23,13.64v.56c-.53.01-1.01.44-1.09.96l2.66,6.49c.08,0,.09-.08.11-.14.15-.34.26-.8.4-1.16.79-2.04,2.69-6.25,5-6.81,2.84-.69,2.37,3.93-.39,2.51l-.51-.61c-1.35,1.21-2.14,3.01-2.76,4.69s-1.06,3.41-1.47,5.14c-.26,0-1.54.09-1.66-.03l-2.41-5.77-2.8,5.83-1.4-.06L3.75,15.24c-.2-.4-.34-.76-.78-.96-.28-.13-.47.02-.45-.39,0-.16,0-.26.2-.25,1.3.12,2.88-.15,4.15,0,.25.03.27.37.17.51-.04.05-.38.1-.52.2-.24.18-.29.53-.21.81,1.05,2.14,1.85,4.53,2.94,6.64.03.06-.03.11.12.08l2.02-4.68c-.26-.63-.48-1.3-.78-1.91-.17-.36-.33-.74-.69-.94s-.78-.09-.47-.7h4.79Z"/>
  <path d="M29.69,19.91h-.38c-.29-1.17-.86-2.17-2.22-2.07-1.15.08-1.38,1.21-.47,1.87,1.31.95,3.93,1.18,3.75,3.36-.24,2.89-4.65,2.87-6.44,1.51v-1.99l.39.03c.33,1.29,1.49,2.37,2.88,2.27.72-.05,1.36-.5,1.19-1.3-.13-.61-1.45-1.02-1.97-1.28-1.41-.71-2.62-1.46-2.18-3.29.53-2.23,4.02-2.15,5.45-.88v1.76Z"/>
  <path d="M23.08,17.28v6.86s.17.4.23.44c.12.11.39.17.55.2v.5s-3.97,0-3.97,0v-.5c.66-.05.8-.45.84-1.04.08-1.16.11-3.34,0-4.47-.06-.56-.25-.77-.81-.87l-.02-.5c1.06-.19,2.11-.61,3.19-.62Z"/>
  <path d="M36.35,30.88c.03-.1.15-.08.22-.2.06-.1.06-.17.06-.27.04-.43.06-1.62,0-2.01-.03-.2-.13-.23-.28-.34l.67-.25.03.5c.51-.71,1.67-.69,1.99.17.38-.63,1.12-.93,1.76-.45.84.63.14,2.36.53,2.71.07.07.22.05.22.14h-1.06c.02-.11.17-.07.25-.17.13-.17.11-1.46.08-1.75-.02-.21-.08-.53-.19-.7-.4-.61-1.35-.28-1.47.37-.05.27-.06,1.68-.01,1.95.04.2.2.17.28.31h-1.01c0-.1.15-.06.21-.12.04-.04.06-.13.06-.19.06-.41.05-1.88-.11-2.23-.37-.79-1.42-.38-1.55.4-.05.32-.06,1.39,0,1.72.01.08.04.2.08.25.08.1.23.06.25.17h-1.01Z"/>
  <path d="M47.83,26.23v4.45l.39.14c-.14.23-.64.18-.77-.04l-.12-.41c-.54,1-1.96.66-2.3-.36-.53-1.62,1.12-3.06,2.35-1.65v-1.71c0-.13-.33-.08-.28-.25l.73-.17ZM46.13,27.93c-1.07.22-1.06,3.03.27,2.96,1.41-.08,1.34-3.29-.27-2.96Z"/>
  <path d="M52.47,30.71c-.04.37-.68.32-.77.02-.03-.09.01-.41-.04-.41-.41,1.16-2.48.65-1.87-.58.33-.67,1.26-.56,1.9-.59.01-.62.04-1.29-.76-1.24-.24.02-.44.09-.51.33-.05.17.03.42-.22.45l-.22-.1c-.15-.62.68-.83,1.18-.78,1.47.13.72,1.84.94,2.76.08.36.36.13.38.15ZM51.69,29.2c-.48.1-1.27,0-1.52.52-.38.78.47,1.41,1.13.91.44-.34.4-.93.39-1.43Z"/>
  <path d="M44.58,29.2h-2.3c-.17,1.35,1.31,2.06,2.24,1.06-.26.72-1.23.86-1.86.55-1.1-.54-1.14-2.4,0-2.89,1.01-.43,1.93.18,1.92,1.27ZM44.19,29.09c.05-1.66-1.86-1.52-1.9,0h1.9Z"/>
  <path d="M49.17,27.8v2.83c0,.11.18.2.28.2v.06s-1.01,0-1.01,0c0-.1.15-.06.21-.12.04-.04.06-.13.06-.19.03-.24.03-2.19-.02-2.32-.07-.15-.29-.12-.25-.28l.73-.17Z"/>
  <path d="M48.76,26.69c.42-.13.63.4.28.56-.45.21-.65-.45-.28-.56Z"/>
</svg>